# Blender v3.1.0 OBJ File: 'spheres_box.blend'
# www.blender.org
o SpheresBoxCube_Cube
v 1.216890 8.444614 0.895886
v 1.216890 8.252274 2.244915
v 1.216890 12.124109 1.420496
v 1.216890 11.931768 2.769526
v 2.579562 8.444614 0.895886
v 2.579562 8.252274 2.244915
v 2.579562 12.124109 1.420496
v 2.579562 11.931768 2.769526
vt 0.625000 0.000000
vt 0.375000 0.250000
vt 0.375000 0.000000
vt 0.625000 0.250000
vt 0.375000 0.500000
vt 0.625000 0.500000
vt 0.375000 0.750000
vt 0.625000 0.750000
vt 0.375000 1.000000
vt 0.125000 0.750000
vt 0.125000 0.500000
vt 0.875000 0.500000
vt 0.625000 1.000000
vt 0.875000 0.750000
vn -1.0000 0.0000 0.0000
vn 0.0000 0.9900 0.1412
vn 1.0000 -0.0000 0.0000
vn 0.0000 -0.9900 -0.1411
vn 0.0000 0.1411 -0.9900
vn 0.0000 -0.1411 0.9900
vn 0.0000 0.9900 0.1411
vn 0.0000 -0.9900 -0.1412
s off
f 2/1/1 3/2/1 1/3/1
f 4/4/2 7/5/2 3/2/2
f 8/6/3 5/7/3 7/5/3
f 6/8/4 1/9/4 5/7/4
f 7/5/5 1/10/5 3/11/5
f 4/12/6 6/8/6 8/6/6
f 2/1/1 4/4/1 3/2/1
f 4/4/7 8/6/7 7/5/7
f 8/6/3 6/8/3 5/7/3
f 6/8/8 2/13/8 1/9/8
f 7/5/5 5/7/5 1/10/5
f 4/12/6 2/14/6 6/8/6
