# Blender v3.1.0 OBJ File: 'veach_room.blend'
# www.blender.org
o VeachTableTop_Cube.008
v -3.706875 -1.378570 1.919662
v -3.706875 3.735600 1.919663
v -3.706875 3.735600 1.819663
v -3.706875 -1.378570 1.819662
v -3.706875 3.735600 1.919663
v -1.066875 3.735600 1.919663
v -1.066875 3.735600 1.819663
v -3.706875 3.735600 1.819663
v -1.066875 3.735600 1.919663
v -1.066875 -1.378570 1.919662
v -1.066875 -1.378570 1.819662
v -1.066875 3.735600 1.819663
v -1.066875 -1.378570 1.919662
v -3.706875 -1.378570 1.919662
v -3.706875 -1.378570 1.819662
v -1.066875 -1.378570 1.819662
v -3.706875 -1.378570 1.819662
v -3.706875 3.735600 1.819663
v -1.066875 3.735600 1.819663
v -1.066875 -1.378570 1.919662
v -1.066875 3.735600 1.919663
v -3.706875 3.735600 1.919663
v -3.706875 -1.378570 1.919662
vt 0.000000 0.000000
vt 0.000000 0.000000
vt 0.000000 0.000000
vt 0.000000 0.000000
vt 0.000000 0.000000
vt 0.000000 0.000000
vt 0.000000 0.000000
vt 0.000000 0.000000
vt 0.000000 0.000000
vt 0.000000 0.000000
vt 0.000000 0.000000
vt 0.000000 0.000000
vt 0.000000 0.000000
vt 0.000000 0.000000
vt 0.000000 0.000000
vt 0.000000 0.000000
vt 0.000000 0.000000
vt 0.000000 0.000000
vt 0.000000 0.000000
vt 0.000000 0.000000
vn -1.0000 0.0000 0.0000
vn 0.0000 1.0000 0.0000
vn 1.0000 -0.0000 0.0000
vn 0.0000 -1.0000 0.0000
vn 0.0000 -0.0000 1.0000
s 1
f 1/1/1 2/2/1 3/3/1
f 1/1/1 3/3/1 4/4/1
f 5/5/2 6/6/2 7/7/2
f 5/5/2 7/7/2 8/8/2
f 9/9/3 10/10/3 11/11/3
f 9/9/3 11/11/3 12/12/3
f 13/13/4 14/14/4 15/15/4
f 13/13/4 15/15/4 16/16/4
f 20/17/5 21/18/5 22/19/5
f 20/17/5 22/19/5 23/20/5
