# Blender v3.1.0 OBJ File: 'veach_room.blend'
# www.blender.org
o VeachTableLampTop_Mesh004
v -2.649567 3.685680 5.390361
v -2.620913 3.689919 5.386200
v -2.593060 3.695480 5.379158
v -2.566044 3.701993 5.369991
v -2.540430 3.709695 5.358121
v -2.516090 3.718233 5.344303
v -2.493699 3.727780 5.328060
v -2.472970 3.738013 5.310119
v -2.454663 3.749040 5.290129
v -2.438342 3.760575 5.268754
v -2.424822 3.772657 5.245786
v -2.413536 3.785052 5.221800
v -2.405323 3.797724 5.196734
v -2.399506 3.810502 5.171061
v -2.396915 3.823278 5.144862
v -2.396790 3.835947 5.118484
v -2.399922 3.848337 5.092158
v -2.405493 3.860411 5.066092
v -2.414227 3.871937 5.040652
v -2.425282 3.882952 5.015899
v -2.439281 3.893172 4.992321
v -2.455394 3.902705 4.969831
v -2.474122 3.911225 4.949022
v -2.494673 3.918910 4.929660
v -2.517409 3.925404 4.912420
v -2.541610 3.930944 4.896931
v -2.567481 3.935162 4.883923
v -2.594401 3.938345 4.872900
v -2.622412 3.940126 4.864623
v -2.651016 3.940830 4.858490
v -2.680091 3.940103 4.855262
v -2.709281 3.938301 4.854258
v -2.738303 3.935096 4.856203
v -2.766957 3.930857 4.860363
v -2.794810 3.925297 4.867405
v -2.821826 3.918783 4.876572
v -2.847440 3.911082 4.888443
v -2.871780 3.902544 4.902261
v -2.894171 3.892996 4.918505
v -2.914900 3.882763 4.936446
v -2.933207 3.871737 4.956436
v -2.949528 3.860201 4.977809
v -2.963047 3.848119 5.000779
v -2.974334 3.835725 5.024764
v -2.982546 3.823052 5.049829
v -2.988364 3.810275 5.075503
v -2.990954 3.797498 5.101703
v -2.991080 3.784829 5.128079
v -2.987948 3.772440 5.154406
v -2.982376 3.760365 5.180471
v -2.973643 3.748840 5.205912
v -2.962588 3.737824 5.230667
v -2.948588 3.727605 5.254242
v -2.932476 3.718072 5.276733
v -2.913748 3.709551 5.297542
v -2.893196 3.701867 5.316904
v -2.870460 3.695373 5.334144
v -2.846259 3.689833 5.349634
v -2.820389 3.685614 5.362641
v -2.793469 3.682431 5.373664
v -2.765458 3.680651 5.381941
v -2.736853 3.679947 5.388073
v -2.707778 3.680673 5.391302
v -2.678588 3.682475 5.392306
vt 0.000000 0.000000
vt 0.000000 0.000000
vt 0.000000 0.000000
vt 0.000000 0.000000
vt 0.000000 0.000000
vt 0.000000 0.000000
vt 0.000000 0.000000
vt 0.000000 0.000000
vt 0.000000 0.000000
vt 0.000000 0.000000
vt 0.000000 0.000000
vt 0.000000 0.000000
vt 0.000000 0.000000
vt 0.000000 0.000000
vt 0.000000 0.000000
vt 0.000000 0.000000
vt 0.000000 0.000000
vt 0.000000 0.000000
vt 0.000000 0.000000
vt 0.000000 0.000000
vt 0.000000 0.000000
vt 0.000000 0.000000
vt 0.000000 0.000000
vt 0.000000 0.000000
vt 0.000000 0.000000
vt 0.000000 0.000000
vt 0.000000 0.000000
vt 0.000000 0.000000
vt 0.000000 0.000000
vt 0.000000 0.000000
vt 0.000000 0.000000
vt 0.000000 0.000000
vt 0.000000 0.000000
vt 0.000000 0.000000
vt 0.000000 0.000000
vt 0.000000 0.000000
vt 0.000000 0.000000
vt 0.000000 0.000000
vt 0.000000 0.000000
vt 0.000000 0.000000
vt 0.000000 0.000000
vt 0.000000 0.000000
vt 0.000000 0.000000
vt 0.000000 0.000000
vt 0.000000 0.000000
vt 0.000000 0.000000
vt 0.000000 0.000000
vt 0.000000 0.000000
vt 0.000000 0.000000
vt 0.000000 0.000000
vt 0.000000 0.000000
vt 0.000000 0.000000
vt 0.000000 0.000000
vt 0.000000 0.000000
vt 0.000000 0.000000
vt 0.000000 0.000000
vt 0.000000 0.000000
vt 0.000000 0.000000
vt 0.000000 0.000000
vt 0.000000 0.000000
vt 0.000000 0.000000
vt 0.000000 0.000000
vt 0.000000 0.000000
vt 0.000000 0.000000
vn -0.0704 0.8993 0.4316
vn -0.0704 0.8992 0.4318
vn -0.0704 0.8994 0.4314
vn -0.0704 0.8993 0.4317
vn -0.0703 0.8993 0.4317
vn -0.0705 0.8994 0.4315
vn -0.0703 0.8993 0.4316
vn -0.0704 0.8994 0.4315
s 1
f 1/1/1 2/2/2 3/3/3
f 1/1/1 3/3/3 4/4/4
f 1/1/1 4/4/4 5/5/5
f 1/1/1 5/5/5 6/6/6
f 1/1/1 6/6/6 7/7/1
f 1/1/1 7/7/1 8/8/1
f 1/1/1 8/8/1 9/9/1
f 1/1/1 9/9/1 10/10/1
f 1/1/1 10/10/1 11/11/1
f 1/1/1 11/11/1 12/12/1
f 1/1/1 12/12/1 13/13/7
f 1/1/1 13/13/7 14/14/1
f 1/1/1 14/14/1 15/15/1
f 1/1/1 15/15/1 16/16/1
f 1/1/1 16/16/1 17/17/1
f 1/1/1 17/17/1 18/18/1
f 1/1/1 18/18/1 19/19/1
f 1/1/1 19/19/1 20/20/1
f 1/1/1 20/20/1 21/21/1
f 1/1/1 21/21/1 22/22/1
f 1/1/1 22/22/1 23/23/1
f 1/1/1 23/23/1 24/24/1
f 1/1/1 24/24/1 25/25/1
f 1/1/1 25/25/1 26/26/1
f 1/1/1 26/26/1 27/27/1
f 1/1/1 27/27/1 28/28/1
f 1/1/1 28/28/1 29/29/1
f 1/1/1 29/29/1 30/30/1
f 1/1/1 30/30/1 31/31/1
f 1/1/1 31/31/1 32/32/1
f 1/1/1 32/32/1 33/33/1
f 1/1/1 33/33/1 34/34/1
f 1/1/1 34/34/1 35/35/1
f 1/1/1 35/35/1 36/36/1
f 1/1/1 36/36/1 37/37/1
f 1/1/1 37/37/1 38/38/1
f 1/1/1 38/38/1 39/39/1
f 1/1/1 39/39/1 40/40/1
f 1/1/1 40/40/1 41/41/1
f 1/1/1 41/41/1 42/42/1
f 1/1/1 42/42/1 43/43/1
f 1/1/1 43/43/1 44/44/1
f 1/1/1 44/44/1 45/45/1
f 1/1/1 45/45/1 46/46/1
f 1/1/1 46/46/1 47/47/1
f 1/1/1 47/47/1 48/48/1
f 1/1/1 48/48/1 49/49/1
f 1/1/1 49/49/1 50/50/4
f 1/1/1 50/50/4 51/51/1
f 1/1/1 51/51/1 52/52/1
f 1/1/1 52/52/1 53/53/1
f 1/1/1 53/53/1 54/54/1
f 1/1/1 54/54/1 55/55/1
f 1/1/1 55/55/1 56/56/1
f 1/1/1 56/56/1 57/57/1
f 1/1/1 57/57/1 58/58/1
f 1/1/1 58/58/1 59/59/4
f 1/1/1 59/59/4 60/60/8
f 1/1/1 60/60/8 61/61/1
f 1/1/1 61/61/1 62/62/1
f 1/1/1 62/62/1 63/63/1
f 1/1/1 63/63/1 64/64/8
