# Blender v3.1.0 OBJ File: 'veach_room.blend'
# www.blender.org
o VeachTableLeg4_Cylinder.005
v -3.362402 -0.776589 0.002139
v -3.362402 -0.776589 1.857393
v -3.340552 -0.778741 1.857393
v -3.340552 -0.778741 0.002139
v -3.319542 -0.785114 1.857393
v -3.319542 -0.785114 0.002139
v -3.300179 -0.795464 1.857393
v -3.300179 -0.795464 0.002139
v -3.283206 -0.809393 1.857393
v -3.283206 -0.809393 0.002139
v -3.269278 -0.826365 1.857393
v -3.269278 -0.826365 0.002139
v -3.258928 -0.845728 1.857393
v -3.258928 -0.845728 0.002139
v -3.252554 -0.866739 1.857393
v -3.252554 -0.866739 0.002139
v -3.250402 -0.888589 1.857393
v -3.250402 -0.888589 0.002139
v -3.252554 -0.910439 1.857393
v -3.252554 -0.910439 0.002139
v -3.258928 -0.931449 1.857393
v -3.258928 -0.931449 0.002139
v -3.269278 -0.950813 1.857393
v -3.269278 -0.950813 0.002139
v -3.283206 -0.967785 1.857393
v -3.283206 -0.967785 0.002139
v -3.300179 -0.981713 1.857393
v -3.300179 -0.981713 0.002139
v -3.319542 -0.992063 1.857393
v -3.319542 -0.992063 0.002139
v -3.340552 -0.998437 1.857393
v -3.340552 -0.998437 0.002139
v -3.362402 -1.000589 1.857393
v -3.362402 -1.000589 0.002139
v -3.384253 -0.998437 1.857393
v -3.384253 -0.998437 0.002139
v -3.405263 -0.992063 1.857393
v -3.405263 -0.992063 0.002139
v -3.424626 -0.981713 1.857393
v -3.424626 -0.981713 0.002139
v -3.441598 -0.967785 1.857393
v -3.441598 -0.967785 0.002139
v -3.455527 -0.950813 1.857393
v -3.455527 -0.950813 0.002139
v -3.465877 -0.931449 1.857393
v -3.465877 -0.931449 0.002139
v -3.472250 -0.910439 1.857393
v -3.472250 -0.910439 0.002139
v -3.474402 -0.888589 1.857393
v -3.474402 -0.888589 0.002139
v -3.472250 -0.866739 1.857393
v -3.472250 -0.866739 0.002139
v -3.465877 -0.845728 1.857393
v -3.465877 -0.845728 0.002139
v -3.455527 -0.826365 1.857393
v -3.455527 -0.826365 0.002139
v -3.441598 -0.809393 1.857393
v -3.441598 -0.809393 0.002139
v -3.424626 -0.795464 1.857393
v -3.424626 -0.795464 0.002139
v -3.405263 -0.785114 1.857393
v -3.405263 -0.785114 0.002139
v -3.384252 -0.778741 0.002139
v -3.384252 -0.778741 1.857393
vt 0.000000 0.000000
vt 0.000000 0.000000
vt 0.000000 0.000000
vt 0.000000 0.000000
vt 0.000000 0.000000
vt 0.000000 0.000000
vt 0.000000 0.000000
vt 0.000000 0.000000
vt 0.000000 0.000000
vt 0.000000 0.000000
vt 0.000000 0.000000
vt 0.000000 0.000000
vt 0.000000 0.000000
vt 0.000000 0.000000
vt 0.000000 0.000000
vt 0.000000 0.000000
vt 0.000000 0.000000
vt 0.000000 0.000000
vt 0.000000 0.000000
vt 0.000000 0.000000
vt 0.000000 0.000000
vt 0.000000 0.000000
vt 0.000000 0.000000
vt 0.000000 0.000000
vt 0.000000 0.000000
vt 0.000000 0.000000
vt 0.000000 0.000000
vt 0.000000 0.000000
vt 0.000000 0.000000
vt 0.000000 0.000000
vt 0.000000 0.000000
vt 0.000000 0.000000
vt 0.000000 0.000000
vt 0.000000 0.000000
vt 0.000000 0.000000
vt 0.000000 0.000000
vt 0.000000 0.000000
vt 0.000000 0.000000
vt 0.000000 0.000000
vt 0.000000 0.000000
vt 0.000000 0.000000
vt 0.000000 0.000000
vt 0.000000 0.000000
vt 0.000000 0.000000
vt 0.000000 0.000000
vt 0.000000 0.000000
vt 0.000000 0.000000
vt 0.000000 0.000000
vt 0.000000 0.000000
vt 0.000000 0.000000
vt 0.000000 0.000000
vt 0.000000 0.000000
vt 0.000000 0.000000
vt 0.000000 0.000000
vt 0.000000 0.000000
vt 0.000000 0.000000
vt 0.000000 0.000000
vt 0.000000 0.000000
vt 0.000000 0.000000
vt 0.000000 0.000000
vt 0.000000 0.000000
vt 0.000000 0.000000
vt 0.000000 0.000000
vt 0.000000 0.000000
vn 0.0000 1.0000 0.0000
vn 0.1951 0.9808 0.0000
vn 0.3827 0.9239 0.0000
vn 0.5556 0.8315 0.0000
vn 0.7071 0.7071 0.0000
vn 0.8315 0.5556 0.0000
vn 0.9239 0.3827 0.0000
vn 0.9808 0.1951 0.0000
vn 1.0000 -0.0000 0.0000
vn 0.9808 -0.1951 -0.0000
vn 0.9239 -0.3827 -0.0000
vn 0.8315 -0.5556 -0.0000
vn 0.7071 -0.7071 -0.0000
vn 0.5556 -0.8315 -0.0000
vn 0.3827 -0.9239 -0.0000
vn 0.1951 -0.9808 -0.0000
vn 0.0000 -1.0000 -0.0000
vn -0.1951 -0.9808 -0.0000
vn -0.3827 -0.9239 -0.0000
vn -0.5556 -0.8315 -0.0000
vn -0.7071 -0.7071 -0.0000
vn -0.8315 -0.5556 -0.0000
vn -0.9239 -0.3827 -0.0000
vn -0.9808 -0.1951 -0.0000
vn -1.0000 -0.0000 0.0000
vn -0.9808 0.1951 0.0000
vn -0.9239 0.3827 0.0000
vn -0.8315 0.5556 0.0000
vn -0.7071 0.7071 0.0000
vn -0.5556 0.8315 0.0000
vn -0.3827 0.9239 0.0000
vn -0.1951 0.9808 0.0000
s 1
f 1/1/1 2/2/1 3/3/2
f 1/1/1 3/3/2 4/4/2
f 4/4/2 3/3/2 5/5/3
f 4/4/2 5/5/3 6/6/3
f 6/6/3 5/5/3 7/7/4
f 6/6/3 7/7/4 8/8/4
f 8/8/4 7/7/4 9/9/5
f 8/8/4 9/9/5 10/10/5
f 10/10/5 9/9/5 11/11/6
f 10/10/5 11/11/6 12/12/6
f 12/12/6 11/11/6 13/13/7
f 12/12/6 13/13/7 14/14/7
f 14/14/7 13/13/7 15/15/8
f 14/14/7 15/15/8 16/16/8
f 16/16/8 15/15/8 17/17/9
f 16/16/8 17/17/9 18/18/9
f 18/18/9 17/17/9 19/19/10
f 18/18/9 19/19/10 20/20/10
f 20/20/10 19/19/10 21/21/11
f 20/20/10 21/21/11 22/22/11
f 22/22/11 21/21/11 23/23/12
f 22/22/11 23/23/12 24/24/12
f 24/24/12 23/23/12 25/25/13
f 24/24/12 25/25/13 26/26/13
f 26/26/13 25/25/13 27/27/14
f 26/26/13 27/27/14 28/28/14
f 28/28/14 27/27/14 29/29/15
f 28/28/14 29/29/15 30/30/15
f 30/30/15 29/29/15 31/31/16
f 30/30/15 31/31/16 32/32/16
f 32/32/16 31/31/16 33/33/17
f 32/32/16 33/33/17 34/34/17
f 34/34/17 33/33/17 35/35/18
f 34/34/17 35/35/18 36/36/18
f 36/36/18 35/35/18 37/37/19
f 36/36/18 37/37/19 38/38/19
f 38/38/19 37/37/19 39/39/20
f 38/38/19 39/39/20 40/40/20
f 40/40/20 39/39/20 41/41/21
f 40/40/20 41/41/21 42/42/21
f 42/42/21 41/41/21 43/43/22
f 42/42/21 43/43/22 44/44/22
f 44/44/22 43/43/22 45/45/23
f 44/44/22 45/45/23 46/46/23
f 46/46/23 45/45/23 47/47/24
f 46/46/23 47/47/24 48/48/24
f 48/48/24 47/47/24 49/49/25
f 48/48/24 49/49/25 50/50/25
f 50/50/25 49/49/25 51/51/26
f 50/50/25 51/51/26 52/52/26
f 52/52/26 51/51/26 53/53/27
f 52/52/26 53/53/27 54/54/27
f 54/54/27 53/53/27 55/55/28
f 54/54/27 55/55/28 56/56/28
f 56/56/28 55/55/28 57/57/29
f 56/56/28 57/57/29 58/58/29
f 58/58/29 57/57/29 59/59/30
f 58/58/29 59/59/30 60/60/30
f 60/60/30 59/59/30 61/61/31
f 60/60/30 61/61/31 62/62/31
f 63/63/32 64/64/32 2/2/1
f 63/63/32 2/2/1 1/1/1
f 62/62/31 61/61/31 64/64/32
f 62/62/31 64/64/32 63/63/32
